<svg width="16" height="16" viewBox="0 0 16 16" fill="none" xmlns="http://www.w3.org/2000/svg">
<path d="M8.00007 3.21896V1.62529M8.00007 3.21896C7.11991 3.21896 6.4064 3.93247 6.4064 4.81263C6.4064 5.69279 7.11991 6.4063 8.00007 6.4063M8.00007 3.21896C8.88023 3.21896 9.59374 3.93247 9.59374 4.81263C9.59374 5.69279 8.88023 6.4063 8.00007 6.4063M3.21907 12.781C4.09922 12.781 4.81273 12.0675 4.81273 11.1873C4.81273 10.3071 4.09922 9.59363 3.21907 9.59363M3.21907 12.781C2.33891 12.781 1.6254 12.0675 1.6254 11.1873C1.6254 10.3071 2.33891 9.59363 3.21907 9.59363M3.21907 12.781V14.3746M3.21907 9.59363V1.62529M8.00007 6.4063V14.3746M12.7811 12.781C13.6612 12.781 14.3747 12.0675 14.3747 11.1873C14.3747 10.3071 13.6612 9.59363 12.7811 9.59363M12.7811 12.781C11.9009 12.781 11.1874 12.0675 11.1874 11.1873C11.1874 10.3071 11.9009 9.59363 12.7811 9.59363M12.7811 12.781V14.3746M12.7811 9.59363V1.62529" stroke="#090937" stroke-opacity="0.4" stroke-width="1.5" stroke-linecap="round" stroke-linejoin="round"/>
</svg>
