<svg width="45" height="44" viewBox="0 0 45 44" fill="none" xmlns="http://www.w3.org/2000/svg">
<circle cx="22.3787" cy="22" r="22" fill="#F4F4FF"/>
<path d="M30.1929 15.2714L30.1935 15.272C30.6967 15.7607 31.0989 16.3418 31.3777 16.9828C31.6667 17.6497 31.8135 18.3552 31.8115 19.0821V19.0843C31.8115 19.7651 31.6715 20.4912 31.3801 21.2478L31.3794 21.2495C31.138 21.8809 30.7806 22.5509 30.3149 23.2412C29.5781 24.332 28.5511 25.4893 27.2538 26.6785C25.0974 28.6538 22.9621 30.0186 22.8844 30.0681L22.8842 30.0682L22.3235 30.4253C22.3235 30.4253 22.3235 30.4253 22.3234 30.4253C22.3222 30.4261 22.3197 30.4272 22.3158 30.4272C22.3118 30.4272 22.3094 30.4261 22.3081 30.4253C22.3081 30.4253 22.3081 30.4253 22.308 30.4253L21.7473 30.0682L21.7474 30.0681L21.7355 30.0608C21.7359 30.061 21.7357 30.0609 21.7349 30.0604C21.7323 30.0588 21.7237 30.0534 21.7074 30.0429C21.6879 30.0305 21.6605 30.0128 21.6258 29.9902C21.5565 29.9449 21.4585 29.8802 21.336 29.7974C21.091 29.6317 20.7487 29.3943 20.3411 29.0964C19.5247 28.4995 18.4524 27.664 17.3778 26.6786L17.3777 26.6785C16.0803 25.4891 15.0532 24.3317 14.3164 23.2409C13.8517 22.552 13.4958 21.8813 13.2513 21.2474C12.96 20.4909 12.8201 19.765 12.8201 19.0843C12.8201 18.3558 12.9673 17.6494 13.2563 16.9824C13.5342 16.3414 13.9361 15.7605 14.4397 15.2726L14.4407 15.2716C14.9485 14.7778 15.539 14.3903 16.1955 14.1204L16.1963 14.1201C16.8752 13.84 17.5938 13.6986 18.3392 13.6986C19.3724 13.6986 20.3788 13.9795 21.2524 14.5087L21.2524 14.5087C21.4614 14.6353 21.6593 14.7739 21.8465 14.9247L22.317 15.3036L22.7874 14.9247C22.9746 14.7739 23.1725 14.6353 23.3815 14.5087L23.3816 14.5087C24.2551 13.9795 25.2615 13.6986 26.2947 13.6986L26.2965 13.6986C27.0314 13.6969 27.7592 13.8402 28.4376 14.1201L28.4386 14.1205C29.0925 14.3891 29.6881 14.7799 30.1929 15.2714ZM22.9931 13.8674L22.9932 13.8676L22.9931 13.8674Z" fill="#6251DD" stroke="#6251DD" stroke-width="1.5"/>
</svg>
